<svg xmlns="http://www.w3.org/2000/svg" viewBox="0 0 240.46 208.79"><defs><style>.cls-1{fill:#f1f1f0;}.cls-2{fill:#f2ece7;}.cls-3{fill:#fff;}.cls-4{fill:#efdcc5;}</style></defs><title>Risorsa 1</title><g id="Livello_2" data-name="Livello 2"><g id="Livello_2-2" data-name="Livello 2"><path id="Goccia" class="cls-1" d="M29.23,156.69c.05,4.65-.44,15.59-.44,15.59a20.94,20.94,0,0,1-19.95-3.52c-6.11-4.71-9.46-15-8.74-21.27,1.15-10.07,5.05-13.28,9.71-16.23,6.44-4.09,9.76-7.13,10.19-12,.66-7.69-.62-18.95,1-23,2.72,1.4,1.83,0,9,.69C29.88,115.12,29.11,145.08,29.23,156.69Z"/><rect id="Schiuma" class="cls-2" x="30.15" y="68.65" width="192.73" height="44.41"/><path id="Bolle" class="cls-3" d="M114.62,134.82c-.31-5.8-1.22-28.54-1.18-39.5,0-7.61-6.56-10.42-14.28-10.84-8.28-.44-16.58-.12-24.87-.14-6.3,0-12.61,0-18.92,0-3.66,0-6.56,1-8.63,4.39A24.67,24.67,0,0,1,39.59,96c-3.4,2.42-15.08,4-21.27,1.12A20.83,20.83,0,0,1,4.4,77.06c0-10.78,4.76-15.26,10.25-18.23a33.41,33.41,0,0,1,9.29-1.5c6.12,0,5.54-6.08,6.43-10.64C35,29.32,45.07,23.26,59.69,20.61c13.49-2.45,27.61.66,34,13,.74,1.42,1.46,3.74,4.14,3.71,1.28,0,5.66.3,8.73.2,1.29,0,1.68-1.06,2-2.19,5.18-18,17.2-29.67,35.07-33.81C162-2.24,176.57.36,191.78,16.65c2,2.69,4.77,6.41,6.74,8.76,1.74,2.07,4.15,1.35,7.31,1.85,18.68,3,23.5,16.13,24.57,32.71.15,2.39-.47,4.65,2.13,6.64,9.55,7.31,11.29,22.83.72,28.25-5.41,2.78-14.15.33-14.94-5.8-.66-5.23-9.64-4.79-14.6-5-11.87.23-11.87.23-23.09.26-7.25-.35-8.41,10.11-8.41,10.11s-.28,66.85-.33,70.63c-.06,5.23.57,10.69-6.84,13.76-2.8,1.16-8.41,1.07-12.11-1-5.83-3.33-5.39-8.52-5.28-14.08.21-11.27.73-36.16.88-39.72.09-2.06-.39-8.22-4.6-9.88-1.6-.64-6.48-1.83-9.22,3.75-2.37,4.8-1.85,6.17-2.25,17C132,147.4,115.27,147,114.62,134.82Z"/><path class="cls-3" d="M169.66,198.32a10.2,10.2,0,0,1-10.39,10.47c-6,0-11.39-5.08-11.33-10.73.06-5.35,5.9-11.19,11.2-11.2C165,186.85,169.73,192,169.66,198.32Z"/><path class="cls-4" d="M55.14,94c-1.26-.19-2.32-.8-2.19-2.24a2.19,2.19,0,0,1,2.53-2c1.2,0,2.2.51,2.22,1.87C57.74,93.3,56.62,93.85,55.14,94Z"/><path class="cls-4" d="M98.57,104.73c.09,1-.44,1.33-1.07,1.36A1,1,0,0,1,96.34,105a1.12,1.12,0,0,1,1.19-1.23A1,1,0,0,1,98.57,104.73Z"/><path class="cls-4" d="M41.41,108.45c-1.29.12-2-.71-2.14-2.08a2.19,2.19,0,0,1,2.19-2.64,2.15,2.15,0,0,1,2.4,2.15C44,107.34,43.31,108.39,41.41,108.45Z"/><path class="cls-4" d="M90.68,97.36a2.6,2.6,0,0,1-2.78-2.64,2.82,2.82,0,0,1,2.86-3c1.74,0,2.78,1.07,2.79,2.93C93.57,96.37,92.78,97.33,90.68,97.36Z"/><path class="cls-4" d="M79.62,109a2.83,2.83,0,0,1-2.4-2.57c-.12-1.75,1.24-2.08,2.59-2.15,1.55-.08,2.07,1,2.07,2.29S81,108.68,79.62,109Z"/><path class="cls-4" d="M186.21,90.42c.17,2.1-.89,2.66-2.15,2.72A2,2,0,0,1,181.75,91a2.24,2.24,0,0,1,2.38-2.46A2.07,2.07,0,0,1,186.21,90.42Z"/><path class="cls-4" d="M65.28,102.29a2,2,0,0,1-1.67-1.79c-.08-1.21.86-1.44,1.8-1.49s1.44.66,1.44,1.59S66.24,102.07,65.28,102.29Z"/><path class="cls-4" d="M214.67,105c.09,1-.44,1.32-1.07,1.35a1,1,0,0,1-1.16-1.06,1.12,1.12,0,0,1,1.19-1.23A1,1,0,0,1,214.67,105Z"/><path class="cls-4" d="M206.78,97.64A2.59,2.59,0,0,1,204,95a2.83,2.83,0,0,1,2.86-3c1.75,0,2.78,1.08,2.79,2.93S208.89,97.61,206.78,97.64Z"/><path class="cls-4" d="M195.72,109.27a2.81,2.81,0,0,1-2.4-2.56c-.12-1.75,1.24-2.08,2.59-2.15,1.55-.09,2.07.94,2.07,2.29S197.1,109,195.72,109.27Z"/><path class="cls-4" d="M181.38,102.57a2,2,0,0,1-1.67-1.78c-.08-1.22.86-1.45,1.8-1.5s1.44.66,1.44,1.59S182.34,102.36,181.38,102.57Z"/></g></g></svg>