<svg xmlns="http://www.w3.org/2000/svg" viewBox="0 0 182.66 85"><defs><style>.cls-1{fill:#f7931e;}</style></defs><title>Risorsa 2</title><g id="Livello_2" data-name="Livello 2"><g id="Livello_2-2" data-name="Livello 2"><path class="cls-1" d="M8,40.7c-5.2,0-7.79-2.31-8-7.25a7.94,7.94,0,0,1,7.6-8.06c4.42-.08,8.4,3.73,8.33,8C15.87,38,13,40.66,8,40.7Z"/><path class="cls-1" d="M76,30.5c4.45.19,7.47,3.6,7.29,8.22-.17,4.09-4.14,7.92-8.06,7.78s-7.46-4.3-7.3-8.5A7.43,7.43,0,0,1,76,30.5Z"/><path class="cls-1" d="M46.76,85c-5,.08-7.91-2.59-8-7.39a7.52,7.52,0,0,1,7.72-8,7.35,7.35,0,0,1,7.6,7.41C54.17,82.34,51.79,84.92,46.76,85Z"/><path class="cls-1" d="M180,54.09c0,4.82-3.37,8.46-7.79,8.36-4-.09-7.6-3.94-7.62-8.12a7.52,7.52,0,0,1,7.68-7.87A7.27,7.27,0,0,1,180,54.09Z"/><path class="cls-1" d="M78.28,15.81c-2.26-.34-4.17-1.44-3.92-4,.23-2.41,2.07-3.62,4.53-3.53,2.15.08,3.94.91,4,3.35C82.94,14.53,80.94,15.53,78.28,15.81Z"/><path class="cls-1" d="M182.62,36.39c.31,3.75-1.6,4.75-3.86,4.87a3.62,3.62,0,0,1-4.14-3.81,4,4,0,0,1,4.27-4.4C181.58,33,182.27,35.11,182.62,36.39Z"/><path class="cls-1" d="M34.32,32.77C32,33,30.63,31.5,30.47,29c-.17-2.65,1.06-4.63,3.94-4.74a3.87,3.87,0,0,1,4.31,3.87C38.89,30.79,37.73,32.67,34.32,32.77Z"/><path class="cls-1" d="M148.44,32.8c-2.15,0-4.17-1.26-4.21-4a4.29,4.29,0,0,1,4.34-4.52c2.64-.07,4.21,1.63,4.23,4.44C152.82,31.31,151.63,32.76,148.44,32.8Z"/><path class="cls-1" d="M102.62,50.72c-2.32-.61-4.14-2-4.31-4.6-.21-3.14,2.23-3.74,4.65-3.87,2.78-.14,3.71,1.71,3.72,4.11S105.09,50.16,102.62,50.72Z"/><path class="cls-1" d="M4,8.74C2.12,8.77.67,7.19.74,4.79.83,2.08,2.22-.13,5.36,0,8.23.13,9.48,2.49,9.48,4.77,9.47,7.32,7.54,8.82,4,8.74Z"/><path class="cls-1" d="M176.08,7.31c.3,3.75-1.6,4.75-3.86,4.87a3.62,3.62,0,0,1-4.15-3.81A4,4,0,0,1,172.35,4C175,3.91,175.73,6,176.08,7.31Z"/><path class="cls-1" d="M74.47,69.66c-2.33-.61-4.14-2-4.31-4.6-.22-3.14,2.23-3.74,4.65-3.87,2.78-.14,3.71,1.71,3.71,4.11C78.53,67.85,76.94,69.1,74.47,69.66Z"/><path class="cls-1" d="M8.1,65.81c-2.32-.6-4.13-2-4.31-4.59C3.58,58.07,6,57.48,8.44,57.35c2.78-.14,3.71,1.7,3.72,4.11S10.58,65.26,8.1,65.81Z"/><path class="cls-1" d="M146.7,78.13c-2.33-.61-4.14-2-4.31-4.6-.22-3.14,2.22-3.74,4.65-3.87,2.78-.14,3.71,1.71,3.71,4.11C150.76,76.32,149.17,77.57,146.7,78.13Z"/><path class="cls-1" d="M131.64,58.39c-5,.08-7.91-2.59-8-7.39a7.52,7.52,0,0,1,7.72-8,7.37,7.37,0,0,1,7.6,7.42C139.05,55.72,136.67,58.31,131.64,58.39Z"/></g></g></svg>